<svg width="436" height="32" viewBox="0 0 436 32" xmlns="http://www.w3.org/2000/svg"><path d="M22.94 4.1a7.65 7.65 0 0 1 1.38 4.59 6.67 6.67 0 0 1-1.39 4.42 7.31 7.31 0 0 1-2.29 1.71 6.71 6.71 0 0 1 3.47 2.65 8 8 0 0 1 1.17 4.4 8.8 8.8 0 0 1-1.34 4.79A8 8 0 0 1 21.82 29a8.17 8.17 0 0 1-3.4 1.51 20.89 20.89 0 0 1-4.24.41H.64v-30h14.52C18.82 1 21.42 2 22.94 4.1zm-16.3 2v6.62h7.3a6.07 6.07 0 0 0 3.17-.72 2.83 2.83 0 0 0 1.22-2.64 2.69 2.69 0 0 0-1.61-2.77 11.38 11.38 0 0 0-3.55-.47L6.64 6.1zm0 11.59v8h7.29a7 7 0 0 0 3-.53c1.32-.65 2-1.9 2-3.75A3.22 3.22 0 0 0 17 18.22a7.8 7.8 0 0 0-3-.51l-7.36-.02zm38.05-8.51a9 9 0 0 1 3.83 3.28 10.91 10.91 0 0 1 1.77 4.6c.18 1.46.246 2.93.2 4.4H34.31c.087 2.233.86 3.797 2.32 4.69a5.89 5.89 0 0 0 3.2.84 4.49 4.49 0 0 0 4.42-2.55h5.93a7.19 7.19 0 0 1-2.15 4c-2 2.16-4.787 3.24-8.36 3.24A12.12 12.12 0 0 1 31.85 29c-2.26-1.82-3.39-4.783-3.39-8.89 0-3.847 1.02-6.797 3.06-8.85a10.68 10.68 0 0 1 7.94-3.08 12.56 12.56 0 0 1 5.23 1zm-8.69 5a6.07 6.07 0 0 0-1.55 3.44h10a4.89 4.89 0 0 0-1.55-3.51 5.1 5.1 0 0 0-3.45-1.19A4.61 4.61 0 0 0 36 14.19v-.01zm15.14-1.11V8.93h3.1V2.74H60v6.19h3.61v4.14H60v11.74a2.65 2.65 0 0 0 .35 1.7 3.88 3.88 0 0 0 2.12.33H63c.193.01.387.01.58 0v4.34l-2.75.1c-2.74.1-4.62-.38-5.62-1.42a4.22 4.22 0 0 1-1-3.08V13.07h-3.07zm13.86 0V8.93h3.1V2.74h5.74v6.19h3.61v4.14h-3.57v11.74a2.65 2.65 0 0 0 .35 1.7 3.88 3.88 0 0 0 2.12.33h.56c.193.01.387.01.58 0v4.34l-2.75.1c-2.75.1-4.62-.38-5.63-1.42a4.26 4.26 0 0 1-1-3.08V13.07H65zm30.69-3.89a9 9 0 0 1 3.84 3.28 10.91 10.91 0 0 1 1.77 4.6c.18 1.46.243 2.93.19 4.4H85.31c.093 2.233.87 3.797 2.33 4.69a5.85 5.85 0 0 0 3.2.84 4.89 4.89 0 0 0 3.22-1 5 5 0 0 0 1.2-1.53h5.93a7.27 7.27 0 0 1-2.16 4c-2 2.16-4.77 3.24-8.35 3.24a12.13 12.13 0 0 1-7.83-2.7c-2.26-1.82-3.39-4.783-3.39-8.89 0-3.847 1.02-6.797 3.06-8.85a10.69 10.69 0 0 1 8-3.08 12.54 12.54 0 0 1 5.17 1zm-8.69 5a6.07 6.07 0 0 0-1.54 3.44h10a4.82 4.82 0 0 0-1.55-3.51 5.05 5.05 0 0 0-3.44-1.19A4.63 4.63 0 0 0 87 14.19v-.01zm29.77-5.97h.5v5.95c-.37 0-.7-.07-1-.08-.3-.01-.52 0-.7 0-2.333 0-3.9.76-4.7 2.28a8.83 8.83 0 0 0-.68 3.95v10.63h-5.84V8.73h5.54v3.87a12.7 12.7 0 0 1 2.34-3 6.39 6.39 0 0 1 4.24-1.36l.3-.03zm21.69 22.73h-6.24v-30h6.24zM161.77 10c1.45 1.2 2.18 3.2 2.18 6v15H158V17.43a6.2 6.2 0 0 0-.46-2.69A3.28 3.28 0 0 0 154.3 13a4 4 0 0 0-4 2.5 8.85 8.85 0 0 0-.56 3.39v12h-5.84V8.77h5.62V12a10.23 10.23 0 0 1 2.11-2.47 7.36 7.36 0 0 1 4.53-1.34 8.54 8.54 0 0 1 5.61 1.81zm5.3 3.07V8.93h3.1V2.74h5.74v6.19h3.61v4.14h-3.61v11.74a2.65 2.65 0 0 0 .35 1.7 3.88 3.88 0 0 0 2.12.33h.56c.193.01.387.01.58 0v4.34l-2.75.1c-2.75.1-4.62-.38-5.63-1.42a4.26 4.26 0 0 1-1-3.08V13.07h-3.07zm30.65-3.89a9 9 0 0 1 3.84 3.28 10.91 10.91 0 0 1 1.77 4.6c.18 1.46.243 2.93.19 4.4h-16.18c.093 2.233.87 3.797 2.33 4.69a5.85 5.85 0 0 0 3.2.84 4.89 4.89 0 0 0 3.22-1 5 5 0 0 0 1.2-1.53h5.93a7.31 7.31 0 0 1-2.15 4c-2 2.16-4.787 3.24-8.36 3.24a12.13 12.13 0 0 1-7.83-2.7c-2.247-1.82-3.373-4.783-3.38-8.89 0-3.847 1.02-6.797 3.06-8.85a10.67 10.67 0 0 1 7.94-3.08 12.54 12.54 0 0 1 5.22 1zm-8.69 5a6.07 6.07 0 0 0-1.54 3.44h10a4.82 4.82 0 0 0-1.55-3.51 5.05 5.05 0 0 0-3.44-1.19 4.63 4.63 0 0 0-3.5 1.27l.03-.01zm29.77-5.97h.5v5.95c-.37 0-.7-.07-1-.08-.3-.01-.52 0-.69 0-2.34 0-3.91.76-4.71 2.28a8.85 8.85 0 0 0-.67 3.95v10.63h-5.83V8.73h5.54v3.87a12.7 12.7 0 0 1 2.34-3 6.39 6.39 0 0 1 4.24-1.36l.28-.03zM240.61 10c1.45 1.2 2.18 3.2 2.18 6v15h-6V17.43a6.2 6.2 0 0 0-.46-2.69 3.28 3.28 0 0 0-3.19-1.74 4 4 0 0 0-4 2.5 8.85 8.85 0 0 0-.56 3.39v12h-5.81V8.77h5.62V12a10.23 10.23 0 0 1 2.11-2.47A7.36 7.36 0 0 1 235 8.2a8.51 8.51 0 0 1 5.61 1.8zm22.06-.82a9.08 9.08 0 0 1 3.83 3.28 10.91 10.91 0 0 1 1.77 4.6c.18 1.46.243 2.93.19 4.4h-16.17c.087 2.233.86 3.797 2.32 4.69a5.87 5.87 0 0 0 3.2.84 4.49 4.49 0 0 0 4.42-2.55h5.93a7.19 7.19 0 0 1-2.15 4c-2 2.16-4.787 3.24-8.36 3.24a12.12 12.12 0 0 1-7.82-2.68c-2.26-1.82-3.39-4.783-3.39-8.89 0-3.847 1.02-6.797 3.06-8.85a10.68 10.68 0 0 1 7.94-3.08 12.59 12.59 0 0 1 5.23 1zm-8.69 5a6.07 6.07 0 0 0-1.55 3.44h10a4.89 4.89 0 0 0-1.55-3.51 5.1 5.1 0 0 0-3.45-1.19 4.61 4.61 0 0 0-3.43 1.27l-.02-.01zm15.14-1.11V8.93h3.1V2.74H278v6.19h3.61v4.14H278v11.74a2.65 2.65 0 0 0 .35 1.7 3.88 3.88 0 0 0 2.12.33h.53c.193.01.387.01.58 0v4.34l-2.75.1c-2.75.1-4.62-.38-5.62-1.42a4.22 4.22 0 0 1-1-3.08V13.07h-3.09zM293 11.41V9.32h3.21V5.9a7 7 0 0 1 1-4.09 4 4 0 0 1 3.54-1.5h1.09c.34 0 .67.07 1 .12v2.3a6.26 6.26 0 0 0-1.5-.21 2.74 2.74 0 0 0-1.51.36 2 2 0 0 0-.79.93 4.12 4.12 0 0 0-.31 1.32c0 .49-.06 1-.06 1.48v2.67h4.17v2.09h-4.17v19.57h-2.51V11.41H293zm22.39 20.11a11.13 11.13 0 0 1-3.9-.75 8.74 8.74 0 0 1-3.18-2.13 10.2 10.2 0 0 1-2.15-3.54 14.44 14.44 0 0 1-.79-5c-.012-1.503.2-3 .63-4.44a10.43 10.43 0 0 1 1.88-3.61A8.84 8.84 0 0 1 311 9.63a10.16 10.16 0 0 1 4.38-.89 10.28 10.28 0 0 1 4.42.89 9.08 9.08 0 0 1 3.13 2.42 9.91 9.91 0 0 1 1.86 3.61c.408 1.455.61 2.96.6 4.47a14.22 14.22 0 0 1-.71 4.67 10.32 10.32 0 0 1-2 3.59 8.92 8.92 0 0 1-3.17 2.32 10.19 10.19 0 0 1-4.12.81zm7.34-11.39a15.18 15.18 0 0 0-.41-3.59 8.45 8.45 0 0 0-1.3-2.9 6.13 6.13 0 0 0-2.25-1.94 7.38 7.38 0 0 0-3.38-.71 6.89 6.89 0 0 0-3.36.77 6.72 6.72 0 0 0-2.28 2.05 9.11 9.11 0 0 0-1.29 2.92 13.71 13.71 0 0 0-.42 3.4 13.4 13.4 0 0 0 .48 3.69 8.61 8.61 0 0 0 1.4 2.9 6.18 6.18 0 0 0 2.3 1.88 7.08 7.08 0 0 0 3.17.67 6.92 6.92 0 0 0 3.36-.77 6.55 6.55 0 0 0 2.25-2.07 9.11 9.11 0 0 0 1.3-2.92 13.91 13.91 0 0 0 .43-3.38zm9.89 10.81h-2.5V9.32h2.5v4h.09a7.18 7.18 0 0 1 2.69-3.61 8.2 8.2 0 0 1 4.36-1v2.71a7.22 7.22 0 0 0-3.51.67 5.83 5.83 0 0 0-2.19 1.91 7.61 7.61 0 0 0-1.12 2.86 18.26 18.26 0 0 0-.32 3.44v10.64zM349.77.9h6.17v12.38L367.55.9h8.11l-12.33 12.36 13 17.68h-8.07L359 17.83l-3 3.06v10h-6.17zm35.54 5.18h-5.89V.72h5.89v5.36zm-5.89 2.65h5.89v22.21h-5.89V8.73zm23.29.35a7.07 7.07 0 0 1 2.55 2.46V.94h5.89v30h-5.65v-3.08a8.22 8.22 0 0 1-2.83 2.88 8 8 0 0 1-3.95.89 8.27 8.27 0 0 1-6.56-3.15 12.1 12.1 0 0 1-2.65-8.08c0-3.793.87-6.773 2.61-8.94a8.51 8.51 0 0 1 7-3.26 7.18 7.18 0 0 1 3.59.88zm1.43 15.83a8.17 8.17 0 0 0 1.28-4.75c0-2.72-.687-4.663-2.06-5.83a4.45 4.45 0 0 0-2.93-1.06 4.06 4.06 0 0 0-3.74 1.93 8.85 8.85 0 0 0-1.19 4.8 8.83 8.83 0 0 0 1.21 4.92 4.1 4.1 0 0 0 3.68 1.84 4.3 4.3 0 0 0 3.75-1.85zm16.79-1.06a3.86 3.86 0 0 0 .8 2.2c.72.77 2.06 1.16 4 1.16a6.09 6.09 0 0 0 2.73-.51 1.63 1.63 0 0 0 1-1.53 1.67 1.67 0 0 0-.82-1.49 34.29 34.29 0 0 0-6.08-1.75 12.52 12.52 0 0 1-5.33-2.34 5.1 5.1 0 0 1-1.55-4 6.91 6.91 0 0 1 2.42-5.28c1.61-1.48 3.88-2.21 6.81-2.21a12.49 12.49 0 0 1 6.79 1.66c1.75 1.1 2.76 3 3 5.73h-5.8a3.45 3.45 0 0 0-.64-1.77 4 4 0 0 0-3.26-1.18 4.71 4.71 0 0 0-2.7.59 1.68 1.68 0 0 0-.81 1.38 1.52 1.52 0 0 0 .86 1.45 37.23 37.23 0 0 0 6.06 1.61 11.08 11.08 0 0 1 5.2 2.47 5.59 5.59 0 0 1 1.72 4.17 6.71 6.71 0 0 1-2.47 5.39c-1.64 1.4-4.17 2.09-7.6 2.09-3.43 0-6.08-.73-7.75-2.21a7.17 7.17 0 0 1-2.5-5.63h5.92z" fill="#225976"/></svg>